<svg width="19" height="19" viewBox="0 0 19 19" fill="none" xmlns="http://www.w3.org/2000/svg">
<path d="M18.5658 16.4654L13.6117 11.5113C14.417 10.2979 14.8438 8.89141 14.8438 7.42188C14.8438 3.32871 11.515 0 7.42188 0C3.32871 0 0 3.32871 0 7.42188C0 11.515 3.32871 14.8438 7.42188 14.8438C8.89141 14.8438 10.2979 14.417 11.5113 13.6117L12.8807 14.9811L16.4654 18.5658C16.7475 18.8479 17.1186 19 17.5156 19C17.9127 19 18.2838 18.8441 18.5658 18.5658C18.8479 18.2838 19 17.9127 19 17.5156C19 17.1186 18.8441 16.7475 18.5658 16.4654ZM12.1162 13.1664C12.5021 12.851 12.851 12.5021 13.1664 12.1162L14.2203 13.1701C13.9012 13.5486 13.5486 13.8975 13.1701 14.2203L12.1162 13.1664ZM0.742188 7.42188C0.742188 3.73691 3.73691 0.742188 7.42188 0.742188C11.1068 0.742188 14.1016 3.73691 14.1016 7.42188C14.1016 8.83945 13.66 10.1939 12.8287 11.3369C12.4131 11.9121 11.9121 12.4131 11.3369 12.8287C10.1939 13.66 8.83945 14.1016 7.42188 14.1016C3.73691 14.1016 0.742188 11.1068 0.742188 7.42188ZM18.0389 18.0389C17.8979 18.1799 17.7123 18.2578 17.5156 18.2578C17.3189 18.2578 17.1297 18.1799 16.9924 18.0389L13.6971 14.7436C14.0719 14.4207 14.4244 14.0719 14.7473 13.6934L18.0426 16.9887C18.1836 17.1297 18.2615 17.3152 18.2615 17.5119C18.2615 17.7086 18.1799 17.9016 18.0389 18.0389Z" fill="#02395E"/>
</svg>
